HIERARCHY
ROOT Hips
{
  OFFSET 196.326 95.9168 97.7182
  CHANNELS 6 Xposition Yposition Zposition Zrotation Xrotation Yrotation
  JOINT LeftUpLeg
  {
    OFFSET 8.64259 1.95398 -2.38835
    CHANNELS 3 Zrotation Xrotation Yrotation
    JOINT LeftLeg
    {
      OFFSET 43.7702 0 0
      CHANNELS 3 Zrotation Xrotation Yrotation
      JOINT LeftFoot
      {
        OFFSET 40.6238 0 0
        CHANNELS 3 Zrotation Xrotation Yrotation
        JOINT LeftToeBase
        {
          OFFSET 12.7242 0 0
          CHANNELS 3 Zrotation Xrotation Yrotation
          End Site
          {
            OFFSET 0 0 0
          }
        }
      }
    }
  }
  JOINT RightUpLeg
  {
    OFFSET -8.2249 1.95398 -2.59336
    CHANNELS 3 Zrotation Xrotation Yrotation
    JOINT RightLeg
    {
      OFFSET 43.5653 0 0
      CHANNELS 3 Zrotation Xrotation Yrotation
      JOINT RightFoot
      {
        OFFSET 40.6238 0 0
        CHANNELS 3 Zrotation Xrotation Yrotation
        JOINT RightToeBase
        {
          OFFSET 12.7242 0 0
          CHANNELS 3 Zrotation Xrotation Yrotation
          End Site
          {
            OFFSET 0 0 0
          }
        }
      }
    }
  }
  JOINT Spine
  {
    OFFSET 0.165834 0.87714 6.61349
    CHANNELS 3 Zrotation Xrotation Yrotation
    JOINT Spine1
    {
      OFFSET 7.38963 1.71661e-005 0
      CHANNELS 3 Zrotation Xrotation Yrotation
      JOINT Spine2
      {
        OFFSET 11.9445 1.14441e-005 0
        CHANNELS 3 Zrotation Xrotation Yrotation
        JOINT Spine3
        {
          OFFSET 14.7254 4.19617e-005 0
          CHANNELS 3 Zrotation Xrotation Yrotation
          JOINT Spine4
          {
            OFFSET 10.9679 0 0
            CHANNELS 3 Zrotation Xrotation Yrotation
            JOINT RightShoulder
            {
              OFFSET 2.46616 -1.6653 3.69651
              CHANNELS 3 Zrotation Xrotation Yrotation
              JOINT RightArm
              {
                OFFSET 13.0012 0 0
                CHANNELS 3 Zrotation Xrotation Yrotation
                JOINT RightForeArm
                {
                  OFFSET 28.7848 1.52588e-005 0
                  CHANNELS 3 Zrotation Xrotation Yrotation
                  JOINT RightHand
                  {
                    OFFSET 26.5688 1.52588e-005 0
                    CHANNELS 3 Zrotation Xrotation Yrotation
                    End Site
                    {
                      OFFSET 0 0 0
                    }
                  }
                }
              }
            }
            JOINT LeftShoulder
            {
              OFFSET 2.38034 -1.29275 -3.75231
              CHANNELS 3 Zrotation Xrotation Yrotation
              JOINT LeftArm
              {
                OFFSET 16.3182 6.10351e-005 0
                CHANNELS 3 Zrotation Xrotation Yrotation
                JOINT LeftForeArm
                {
                  OFFSET 27.0901 0 0
                  CHANNELS 3 Zrotation Xrotation Yrotation
                  JOINT LeftHand
                  {
                    OFFSET 24.5451 1.52588e-005 0
                    CHANNELS 3 Zrotation Xrotation Yrotation
                    End Site
                    {
                      OFFSET 0 0 0
                    }
                  }
                }
              }
            }
            JOINT Neck
            {
              OFFSET 5.0226 -0.0266342 0
              CHANNELS 3 Zrotation Xrotation Yrotation
              JOINT Head
              {
                OFFSET 6.69363 2.86102e-005 0
                CHANNELS 3 Zrotation Xrotation Yrotation
                End Site
                {
                  OFFSET 0 0 0
                }
              }
            }
          }
        }
      }
    }
  }
}
MOTION
Frames:	10
Frame Time:	0.0416667
-61.1583 96.3983 49.4483 51.554 -86.1278 49.1786 -172.251 7.46249 95.9828 -7.94176 13.3093 1.56338 55.1432 1.02668 9.29216 42.1606 12.0279 -23.2347 176.266 8.62915 89.9035 -17.6633 7.57331 1.65748 69.6794 -1.87367 -0.951915 27.7566 -1.49697 19.6039 -0.208823 6.69398 -91.1149 13.4723 -0.954068 -2.11024 1.80007 -1.046 -2.06624 -20.7218 -0.275941 -2.29932 -0.709111 -0.275933 -2.29932 80.1233 -51.3649 -115.175 18.8538 -11.1145 4.9859 -1.9691 -14.2694 -34.9585 -8.22294 -0.775952 5.4254 -104.377 -41.3793 53.7452 -29.744 17.4093 -2.85778 1.93015 12.1859 -32.3501 13.8559 1.25782 5.06619 14.4339 -0.521536 -8.56705 -5.89015 1.77674 2.14193 
-61.2707 96.3905 49.3646 45.7262 -87.0555 43.0161 -172.24 6.98446 95.7762 -8.09585 12.3696 1.57768 55.1463 1.11268 8.86388 42.3168 12.2153 -22.5538 176.219 8.67319 89.6408 -18.2132 6.72252 1.50709 70.0998 -1.93475 -0.976536 27.2679 -1.63482 19.8736 -0.234128 6.73961 -91.1015 13.3809 -0.997015 -2.07865 1.70878 -1.08751 -2.03279 -20.8136 -0.32639 -2.28209 -0.800937 -0.326378 -2.28208 79.968 -50.5195 -115.733 19.4477 -11.0064 5.04679 -2.22463 -14.6519 -35.1072 -7.82394 -0.755858 5.60634 -104.079 -41.7871 54.4052 -30.0961 17.5082 -3.27328 1.86618 12.0424 -32.4001 13.9185 1.12968 4.13862 14.0404 -0.512525 -7.58247 -5.21191 1.48807 0.41003 
-60.9037 96.3797 49.198 40.8217 -87.2457 38.4699 -172.185 7.18344 95.9187 -8.24488 12.1033 1.58507 54.7619 1.10037 9.08401 43.7566 13.0849 -24.1223 176.274 8.66374 89.7514 -17.9021 6.46202 1.52218 69.8143 -1.91799 -0.968058 27.6758 -1.54175 19.9588 -0.242936 6.72952 -91.1001 13.401 -1.01399 -2.07356 1.72888 -1.10425 -2.02695 -20.7936 -0.344111 -2.28233 -0.780948 -0.344109 -2.28233 80.2853 -50.8889 -115.123 19.1532 -11.245 4.66509 -2.16937 -15.015 -34.9097 -7.97332 -0.762747 5.49933 -104.01 -41.6245 54.4311 -30.4733 17.4772 -3.20876 2.01077 12.0287 -32.6548 13.326 1.14622 4.62118 13.8163 -1.03215 -8.33122 -4.96318 1.16326 0.415275 
-60.1923 96.4357 48.9095 34.476 -87.2889 32.5486 -172.106 7.51662 95.9234 -8.29203 12.3334 1.44492 54.1699 1.06256 10.0959 44.6045 13.4509 -26.015 176.534 8.75813 89.8354 -17.2704 6.59004 1.30837 68.8094 -1.71934 -0.865282 28.3522 -1.39903 20.2258 -0.250643 6.70868 -91.1269 13.442 -1.04263 -2.12327 1.76985 -1.13505 -2.07535 -20.752 -0.356494 -2.33833 -0.739373 -0.3565 -2.33834 79.9452 -50.9139 -115.611 18.8199 -11.1479 5.11286 -1.70002 -14.2196 -34.9723 -8.16163 -0.774975 5.49975 -103.937 -41.6417 54.5509 -30.6603 17.0131 -3.19243 2.64538 12.8784 -32.7933 11.3764 0.9977 4.62252 13.5945 -1.22159 -8.28456 -4.78763 0.941822 -0.104613 
-59.1517 96.51 48.5472 29.8229 -87.2013 28.076 -172.128 7.81242 95.5185 -8.21319 11.7416 1.25876 54.1924 1.11611 10.2711 45.2632 13.6755 -27.7032 176.526 8.81887 89.4287 -16.4421 6.17258 1.13895 68.068 -1.6778 -0.843819 28.8584 -1.23623 19.621 -0.268015 6.71263 -91.107 13.4343 -1.0674 -2.08033 1.76219 -1.15789 -2.03136 -20.7603 -0.393011 -2.30482 -0.747692 -0.393013 -2.30482 80.1155 -50.9745 -115.338 18.4867 -11.1157 4.69905 -1.88824 -14.7101 -34.5667 -8.04911 -0.773835 5.60246 -103.95 -41.7086 54.5644 -30.4396 17.5983 -3.35534 1.87503 12.1154 -32.3934 13.4953 1.0898 4.08434 14.0025 -1.18235 -8.32345 -5.26612 1.02284 0.0455688 
-57.8257 96.5956 48.0938 27.5224 -87.829 25.6845 -171.925 7.23034 94.8415 -7.97594 11.583 0.766826 54.4642 1.31649 10.759 44.4327 13.1526 -27.4113 176.541 8.30454 88.7197 -15.6742 6.02232 0.659298 67.875 -1.72 -0.866863 28.4378 -1.38399 20.3193 -0.266848 6.77966 -91.036 13.3018 -1.02968 -1.94412 1.62982 -1.11422 -1.89695 -20.8944 -0.397944 -2.16361 -0.88175 -0.39794 -2.1636 80.0554 -50.8921 -115.458 18.5508 -10.8023 4.88979 -2.17714 -14.6623 -34.8634 -7.99762 -0.756338 5.37131 -103.893 -41.6514 54.6229 -30.1744 17.0324 -3.36649 1.87435 11.7134 -32.2839 11.1111 1.11633 5.83432 13.4969 -1.07838 -8.02547 -4.74845 1.00711 -0.13349 
-56.1099 96.6663 47.676 23.077 -87.5412 21.7417 -171.802 7.47957 94.3773 -7.70175 11.7526 0.355454 55.7116 2.39971 11.6592 42.662 11.8058 -28.8642 176.522 8.53859 88.2562 -14.7103 5.94653 0.484486 66.7865 -1.63029 -0.819483 29.2779 -1.15809 19.9317 -0.272047 6.75993 -90.9965 13.342 -1.02118 -1.86559 1.67014 -1.10228 -1.81887 -20.855 -0.413423 -2.08616 -0.842394 -0.413419 -2.08615 80.0198 -50.9509 -115.487 18.653 -10.67 4.72445 -2.00707 -14.5681 -34.4308 -8.20552 -0.791202 5.68767 -103.531 -41.6798 55.1927 -30.2819 17.2883 -3.63549 1.71117 12.4557 -31.4262 13.3881 1.14445 4.52001 13.6027 -0.722423 -7.68165 -4.93926 1.27303 -0.0659455 
-54.2342 96.7298 47.3068 21.8288 -87.4376 20.8054 -171.759 7.45572 93.727 -7.37133 11.5094 -0.0301244 56.2359 2.65493 11.9067 42.6051 11.6177 -30.387 176.701 8.34546 87.6647 -13.3592 5.98756 -0.0492581 65.3366 -1.45273 -0.721198 30.7561 -0.751525 18.9047 -0.255539 6.75807 -90.8665 13.3484 -0.925685 -1.61755 1.67678 -0.995962 -1.57526 -20.851 -0.396836 -1.8209 -0.838342 -0.396841 -1.82091 79.8648 -51.3191 -115.57 19.0313 -10.7028 4.65184 -1.90118 -14.2873 -34.4517 -8.18782 -0.778866 5.5197 -103.632 -41.5785 54.9889 -30.0269 16.8711 -3.13135 1.66695 12.296 -31.1141 13.3142 1.13928 4.53995 13.6159 -0.439863 -7.23223 -5.32227 1.44222 0.602302 
-52.2268 96.8049 46.9667 9.86122 -87.5024 9.14198 -171.599 7.21957 93.0076 -6.84093 11.2865 -0.531037 56.5876 2.94815 12.8908 42.2218 11.1658 -32.6003 176.784 7.95538 87.0036 -11.5278 5.86716 -0.54073 63.6887 -1.33794 -0.655933 31.7468 -0.503256 18.3867 -0.195525 6.76923 -90.6782 13.3298 -0.715537 -1.26717 1.65843 -0.770611 -1.23446 -20.8722 -0.30166 -1.42359 -0.859524 -0.301666 -1.4236 79.8022 -51.6205 -115.543 19.936 -10.7374 4.36208 -2.32044 -14.0546 -34.8278 -7.89666 -0.763643 5.66426 -103.584 -41.6494 55.0968 -29.5824 16.4056 -2.67279 1.58023 12.3106 -30.5319 13.4563 1.1947 4.85547 13.4478 -0.111423 -6.24979 -5.30424 1.50116 0.765843 
-50.2462 96.8404 46.679 2.59877 -87.4844 2.20481 -171.199 7.05477 92.4181 -6.37968 10.3882 -1.19905 57.1887 3.13357 12.4893 40.4089 9.96341 -33.8554 176.952 7.30569 86.463 -9.41398 6.01948 -1.14287 62.6077 -1.51449 -0.770393 31.9391 -0.427797 17.5108 -0.150747 6.7808 -90.4568 13.3099 -0.519675 -0.849014 1.6388 -0.556537 -0.825324 -20.8944 -0.240507 -0.965935 -0.88175 -0.240505 -0.965941 80.2083 -51.2918 -115.079 21.6369 -11.2228 3.73869 -2.40109 -14.4068 -34.9551 -8.08586 -0.770422 5.49759 -103.626 -41.9495 55.1785 -28.7356 15.9524 -2.31037 1.35244 12.7174 -29.2949 13.7837 1.20659 4.74758 12.9644 0.443235 -4.94069 -4.74787 1.69745 1.24864 
